<svg width="32" height="32" viewBox="0 0 32 32" fill="none" xmlns="http://www.w3.org/2000/svg">
<path d="M12 22.6667V9.33341M12 22.6667C12 23.374 11.719 24.0523 11.219 24.5524C10.7189 25.0525 10.0406 25.3334 9.33333 25.3334H6.66667C5.95942 25.3334 5.28115 25.0525 4.78105 24.5524C4.28095 24.0523 4 23.374 4 22.6667V9.33341C4 8.62617 4.28095 7.94789 4.78105 7.4478C5.28115 6.9477 5.95942 6.66675 6.66667 6.66675H9.33333C10.0406 6.66675 10.7189 6.9477 11.219 7.4478C11.719 7.94789 12 8.62617 12 9.33341M12 22.6667C12 23.374 12.281 24.0523 12.781 24.5524C13.2811 25.0525 13.9594 25.3334 14.6667 25.3334H17.3333C18.0406 25.3334 18.7189 25.0525 19.219 24.5524C19.719 24.0523 20 23.374 20 22.6667M12 9.33341C12 8.62617 12.281 7.94789 12.781 7.4478C13.2811 6.9477 13.9594 6.66675 14.6667 6.66675H17.3333C18.0406 6.66675 18.7189 6.9477 19.219 7.4478C19.719 7.94789 20 8.62617 20 9.33341M20 22.6667V9.33341M20 22.6667C20 23.374 20.281 24.0523 20.781 24.5524C21.2811 25.0525 21.9594 25.3334 22.6667 25.3334H25.3333C26.0406 25.3334 26.7189 25.0525 27.219 24.5524C27.719 24.0523 28 23.374 28 22.6667V9.33341C28 8.62617 27.719 7.94789 27.219 7.4478C26.7189 6.9477 26.0406 6.66675 25.3333 6.66675H22.6667C21.9594 6.66675 21.2811 6.9477 20.781 7.4478C20.281 7.94789 20 8.62617 20 9.33341" stroke="#5A5B80" stroke-width="2" stroke-linecap="round" stroke-linejoin="round"/>
</svg>
