<svg width="34" height="34" viewBox="0 0 34 34" fill="none" xmlns="http://www.w3.org/2000/svg">
<rect x="1" y="1" width="32" height="32" rx="8" fill="#0047FF" fill-opacity="0.08"/>
<path d="M6.33337 8.99992C6.33337 8.29267 6.61433 7.6144 7.11442 7.1143C7.61452 6.6142 8.2928 6.33325 9.00004 6.33325H11.6667C12.374 6.33325 13.0522 6.6142 13.5523 7.1143C14.0524 7.6144 14.3334 8.29267 14.3334 8.99992V11.6666C14.3334 12.3738 14.0524 13.0521 13.5523 13.5522C13.0522 14.0523 12.374 14.3333 11.6667 14.3333H9.00004C8.2928 14.3333 7.61452 14.0523 7.11442 13.5522C6.61433 13.0521 6.33337 12.3738 6.33337 11.6666V8.99992ZM19.6667 8.99992C19.6667 8.29267 19.9477 7.6144 20.4478 7.1143C20.9479 6.6142 21.6261 6.33325 22.3334 6.33325H25C25.7073 6.33325 26.3856 6.6142 26.8857 7.1143C27.3858 7.6144 27.6667 8.29267 27.6667 8.99992V11.6666C27.6667 12.3738 27.3858 13.0521 26.8857 13.5522C26.3856 14.0523 25.7073 14.3333 25 14.3333H22.3334C21.6261 14.3333 20.9479 14.0523 20.4478 13.5522C19.9477 13.0521 19.6667 12.3738 19.6667 11.6666V8.99992ZM6.33337 22.3333C6.33337 21.626 6.61433 20.9477 7.11442 20.4476C7.61452 19.9475 8.2928 19.6666 9.00004 19.6666H11.6667C12.374 19.6666 13.0522 19.9475 13.5523 20.4476C14.0524 20.9477 14.3334 21.626 14.3334 22.3333V24.9999C14.3334 25.7072 14.0524 26.3854 13.5523 26.8855C13.0522 27.3856 12.374 27.6666 11.6667 27.6666H9.00004C8.2928 27.6666 7.61452 27.3856 7.11442 26.8855C6.61433 26.3854 6.33337 25.7072 6.33337 24.9999V22.3333ZM19.6667 22.3333C19.6667 21.626 19.9477 20.9477 20.4478 20.4476C20.9479 19.9475 21.6261 19.6666 22.3334 19.6666H25C25.7073 19.6666 26.3856 19.9475 26.8857 20.4476C27.3858 20.9477 27.6667 21.626 27.6667 22.3333V24.9999C27.6667 25.7072 27.3858 26.3854 26.8857 26.8855C26.3856 27.3856 25.7073 27.6666 25 27.6666H22.3334C21.6261 27.6666 20.9479 27.3856 20.4478 26.8855C19.9477 26.3854 19.6667 25.7072 19.6667 24.9999V22.3333Z" stroke="#0047FF" stroke-width="2" stroke-linecap="round" stroke-linejoin="round"/>
<rect x="1" y="1" width="32" height="32" rx="8" stroke="#0047FF" stroke-opacity="0.24"/>
</svg>
